<?xml version="1.0" encoding="utf-8"?>
<!-- Generator: Adobe Illustrator 24.2.1, SVG Export Plug-In . SVG Version: 6.00 Build 0)  -->
<svg version="1.1" id="Componente_3_13" xmlns="http://www.w3.org/2000/svg" xmlns:xlink="http://www.w3.org/1999/xlink" x="0px"
	 y="0px" viewBox="0 0 333.6 167.4" style="enable-background:new 0 0 333.6 167.4;" xml:space="preserve">
<style type="text/css">
	.st0{clip-path:url(#SVGID_2_);}
	.st1{fill:#FFD243;stroke:#37005B;stroke-width:3;stroke-linecap:round;stroke-linejoin:round;}
	.st2{fill:#B1E9EF;stroke:#37005B;stroke-width:3;stroke-linecap:round;stroke-linejoin:round;}
	.st3{fill:#FF801E;stroke:#37005B;stroke-width:3;stroke-linecap:round;stroke-linejoin:round;}
	.st4{fill:#37005B;}
	.st5{fill:#FFFFFF;}
	.st6{font-family:'OpenSans-Bold';}
	.st7{font-size:63px;}
	.st8{fill:none;stroke:#37005B;stroke-width:3;}
</style>
<g id="Grupo_297" transform="translate(-2157.754 -319.949)">
	<g>
		<defs>
			<rect id="SVGID_1_" x="2157.8" y="319.9" width="333.6" height="167.4"/>
		</defs>
		<clipPath id="SVGID_2_">
			<use xlink:href="#SVGID_1_"  style="overflow:visible;"/>
		</clipPath>
		<g id="Grupo_293" class="st0">
			<g id="Grupo_73">
				<g id="Grupo_21">
					<rect id="Retângulo_54" x="2126" y="399.2" class="st1" width="80" height="15.3"/>
					<path id="Retângulo_55" class="st2" d="M2195.3,350.8h222.6c31.2,0,56.6,25.3,56.6,56.6c0,0,0,0,0,0l0,0
						c0,31.2-25.3,56.6-56.6,56.6h-222.6V350.8z"/>
					<path id="Retângulo_56" class="st1" d="M2193,381.8h10.7c4.7,0,8.5,3.8,8.5,8.5v33c0,4.7-3.8,8.5-8.5,8.5H2193
						c-4.7,0-8.5-3.8-8.5-8.5v-33C2184.4,385.6,2188.3,381.8,2193,381.8z"/>
				</g>
				<g id="Grupo_22">
					<rect id="Retângulo_57" x="2125.9" y="399" class="st1" width="80" height="15.3"/>
					<path id="Caminho_147" class="st2" d="M2417.7,463.8h-222.6V350.7h222.6c31.2,0,56.6,25.3,56.6,56.6l0,0l0,0
						C2474.2,438.5,2448.9,463.8,2417.7,463.8z"/>
					<path id="Retângulo_58" class="st1" d="M2192.8,381.6h10.7c4.7,0,8.5,3.8,8.5,8.5v33c0,4.7-3.8,8.5-8.5,8.5h-10.7
						c-4.7,0-8.5-3.8-8.5-8.5v-33C2184.3,385.4,2188.1,381.6,2192.8,381.6z"/>
				</g>
				<g id="Grupo_23">
					<rect id="Retângulo_59" x="2125.7" y="398.9" class="st1" width="80" height="15.3"/>
					<path id="Caminho_148" class="st2" d="M2417.5,463.6H2195V350.5h222.6c31.2,0,56.6,25.3,56.6,56.6c0,0,0,0,0,0l0,0
						C2474.1,438.3,2448.8,463.6,2417.5,463.6L2417.5,463.6z"/>
					<path id="Retângulo_60" class="st1" d="M2192.7,381.5h10.7c4.7,0,8.5,3.8,8.5,8.5v33c0,4.7-3.8,8.5-8.5,8.5h-10.7
						c-4.7,0-8.5-3.8-8.5-8.5v-33C2184.1,385.3,2187.9,381.5,2192.7,381.5z"/>
				</g>
				<g id="Grupo_24">
					<rect id="Retângulo_61" x="2125.5" y="398.7" class="st1" width="80" height="15.3"/>
					<path id="Caminho_149" class="st2" d="M2417.4,463.5h-222.6V350.4h222.6c31.2,0,56.6,25.3,56.6,56.6l0,0
						C2473.9,438.1,2448.6,463.5,2417.4,463.5z"/>
					<path id="Retângulo_62" class="st1" d="M2192.5,381.3h10.7c4.7,0,8.5,3.8,8.5,8.5v33c0,4.7-3.8,8.5-8.5,8.5h-10.7
						c-4.7,0-8.5-3.8-8.5-8.5v-33C2184,385.1,2187.8,381.3,2192.5,381.3z"/>
				</g>
				<g id="Grupo_25">
					<rect id="Retângulo_63" x="2125.4" y="398.6" class="st1" width="80" height="15.3"/>
					<path id="Caminho_150" class="st2" d="M2417.2,463.3h-222.6V350.2h222.6c31.2,0,56.6,25.3,56.6,56.6l0,0
						C2473.8,438,2448.4,463.3,2417.2,463.3z"/>
					<path id="Retângulo_64" class="st1" d="M2192.3,381.1h10.7c4.7,0,8.5,3.8,8.5,8.5v33c0,4.7-3.8,8.5-8.5,8.5h-10.7
						c-4.7,0-8.5-3.8-8.5-8.5v-33C2183.8,384.9,2187.6,381.1,2192.3,381.1z"/>
				</g>
				<g id="Grupo_26">
					<rect id="Retângulo_65" x="2125.2" y="398.4" class="st1" width="80" height="15.3"/>
					<path id="Caminho_151" class="st2" d="M2417,463.1h-222.6V350H2417c31.2,0,56.6,25.3,56.6,56.5c0,0,0,0,0,0l0,0l0,0
						C2473.6,437.8,2448.3,463.1,2417,463.1C2417,463.1,2417,463.1,2417,463.1z"/>
					<path id="Retângulo_66" class="st1" d="M2192.2,381h10.7c4.7,0,8.5,3.8,8.5,8.5v33c0,4.7-3.8,8.5-8.5,8.5h-10.7
						c-4.7,0-8.5-3.8-8.5-8.5v-33C2183.6,384.8,2187.5,381,2192.2,381z"/>
				</g>
				<g id="Grupo_27">
					<rect id="Retângulo_67" x="2125.1" y="398.2" class="st1" width="80" height="15.3"/>
					<path id="Caminho_152" class="st2" d="M2416.9,463h-222.6V349.9h222.6c31.2,0,56.6,25.3,56.6,56.6l0,0
						C2473.4,437.7,2448.1,463,2416.9,463L2416.9,463z"/>
					<path id="Retângulo_68" class="st1" d="M2192,380.8h10.7c4.7,0,8.5,3.8,8.5,8.5v33c0,4.7-3.8,8.5-8.5,8.5H2192
						c-4.7,0-8.5-3.8-8.5-8.5v-33C2183.5,384.6,2187.3,380.8,2192,380.8z"/>
				</g>
				<g id="Grupo_28">
					<rect id="Retângulo_69" x="2124.9" y="398.1" class="st1" width="80" height="15.3"/>
					<path id="Caminho_153" class="st2" d="M2416.7,462.8h-222.6V349.7h222.6c31.2,0,56.6,25.3,56.6,56.6l0,0
						C2473.3,437.5,2448,462.8,2416.7,462.8z"/>
					<path id="Retângulo_70" class="st1" d="M2191.8,380.6h10.7c4.7,0,8.5,3.8,8.5,8.5v33c0,4.7-3.8,8.5-8.5,8.5h-10.7
						c-4.7,0-8.5-3.8-8.5-8.5v-33C2183.3,384.5,2187.1,380.6,2191.8,380.6z"/>
				</g>
				<g id="Grupo_29">
					<rect id="Retângulo_71" x="2124.7" y="397.9" class="st1" width="80" height="15.3"/>
					<path id="Caminho_154" class="st2" d="M2416.6,462.7H2194V349.5h222.6c31.2,0,56.6,25.3,56.6,56.6c0,0,0,0,0,0l0,0
						C2473.1,437.3,2447.8,462.7,2416.6,462.7z"/>
					<path id="Retângulo_72" class="st1" d="M2191.7,380.5h10.7c4.7,0,8.5,3.8,8.5,8.5v33c0,4.7-3.8,8.5-8.5,8.5h-10.7
						c-4.7,0-8.5-3.8-8.5-8.5v-33C2183.1,384.3,2187,380.5,2191.7,380.5z"/>
				</g>
				<g id="Grupo_30">
					<rect id="Retângulo_73" x="2124.6" y="397.7" class="st1" width="80" height="15.3"/>
					<path id="Caminho_155" class="st2" d="M2416.4,462.5h-222.6V349.4h222.6c31.2,0,56.6,25.3,56.6,56.6l0,0l0,0
						C2472.9,437.2,2447.6,462.5,2416.4,462.5C2416.4,462.5,2416.4,462.5,2416.4,462.5z"/>
					<path id="Retângulo_74" class="st1" d="M2191.5,380.3h10.7c4.7,0,8.5,3.8,8.5,8.5v33c0,4.7-3.8,8.5-8.5,8.5h-10.7
						c-4.7,0-8.5-3.8-8.5-8.5v-33C2183,384.1,2186.8,380.3,2191.5,380.3z"/>
				</g>
				<g id="Grupo_31">
					<rect id="Retângulo_75" x="2124.4" y="397.6" class="st1" width="80" height="15.3"/>
					<path id="Caminho_156" class="st2" d="M2416.2,462.3h-222.6V349.2h222.6c31.2,0,56.6,25.3,56.6,56.6c0,0,0,0,0,0l0,0
						C2472.8,437,2447.5,462.3,2416.2,462.3z"/>
					<path id="Retângulo_76" class="st1" d="M2191.4,380.2h10.7c4.7,0,8.5,3.8,8.5,8.5v33c0,4.7-3.8,8.5-8.5,8.5h-10.7
						c-4.7,0-8.5-3.8-8.5-8.5v-33C2182.8,384,2186.6,380.2,2191.4,380.2z"/>
				</g>
				<g id="Grupo_32">
					<rect id="Retângulo_77" x="2124.2" y="397.4" class="st1" width="80" height="15.3"/>
					<path id="Caminho_157" class="st2" d="M2416.1,462.2h-222.6V349.1h222.6c31.2,0,56.5,25.3,56.5,56.6l0,0
						C2472.6,436.8,2447.3,462.2,2416.1,462.2z"/>
					<path id="Retângulo_78" class="st1" d="M2191.2,380h10.7c4.7,0,8.5,3.8,8.5,8.5v33c0,4.7-3.8,8.5-8.5,8.5h-10.7
						c-4.7,0-8.5-3.8-8.5-8.5v-33C2182.7,383.8,2186.5,380,2191.2,380z"/>
				</g>
				<g id="Grupo_33">
					<rect id="Retângulo_79" x="2124.1" y="397.3" class="st1" width="80" height="15.3"/>
					<path id="Caminho_158" class="st2" d="M2415.9,462h-222.6V348.9h222.6c31.2,0,56.6,25.3,56.6,56.6l0,0
						C2472.5,436.7,2447.1,462,2415.9,462L2415.9,462z"/>
					<path id="Retângulo_80" class="st1" d="M2191,379.8h10.7c4.7,0,8.5,3.8,8.5,8.5v33c0,4.7-3.8,8.5-8.5,8.5H2191
						c-4.7,0-8.5-3.8-8.5-8.5v-33C2182.5,383.6,2186.3,379.8,2191,379.8z"/>
				</g>
				<g id="Grupo_34">
					<rect id="Retângulo_81" x="2123.9" y="397.1" class="st1" width="80" height="15.3"/>
					<path id="Caminho_159" class="st2" d="M2415.7,461.8h-222.6V348.7h222.6c31.2,0,56.6,25.3,56.6,56.5c0,0,0,0,0,0l0,0
						C2472.3,436.5,2447,461.8,2415.7,461.8z"/>
					<path id="Retângulo_82" class="st1" d="M2190.9,379.7h10.7c4.7,0,8.5,3.8,8.5,8.5v33c0,4.7-3.8,8.5-8.5,8.5h-10.7
						c-4.7,0-8.5-3.8-8.5-8.5v-33C2182.3,383.5,2186.2,379.7,2190.9,379.7z"/>
				</g>
				<g id="Grupo_35">
					<rect id="Retângulo_83" x="2123.8" y="396.9" class="st1" width="80" height="15.3"/>
					<path id="Caminho_160" class="st2" d="M2415.6,461.7H2193V348.6h222.6c31.2,0,56.6,25.3,56.6,56.6c0,0,0,0,0,0l0,0
						C2472.1,436.4,2446.8,461.7,2415.6,461.7z"/>
					<path id="Retângulo_84" class="st1" d="M2190.7,379.5h10.7c4.7,0,8.5,3.8,8.5,8.5v33c0,4.7-3.8,8.5-8.5,8.5h-10.7
						c-4.7,0-8.5-3.8-8.5-8.5v-33C2182.2,383.3,2186,379.5,2190.7,379.5z"/>
				</g>
				<g id="Grupo_36">
					<rect id="Retângulo_85" x="2123.6" y="396.8" class="st1" width="80" height="15.3"/>
					<path id="Caminho_161" class="st2" d="M2415.4,461.5h-222.6V348.4h222.6c31.2,0,56.6,25.3,56.6,56.6l0,0
						C2472,436.2,2446.7,461.5,2415.4,461.5L2415.4,461.5z"/>
					<path id="Retângulo_86" class="st1" d="M2190.5,379.3h10.7c4.7,0,8.5,3.8,8.5,8.5v33c0,4.7-3.8,8.5-8.5,8.5h-10.7
						c-4.7,0-8.5-3.8-8.5-8.5v-33C2182,383.2,2185.8,379.3,2190.5,379.3z"/>
				</g>
				<g id="Grupo_37">
					<rect id="Retângulo_87" x="2123.4" y="396.6" class="st1" width="80" height="15.3"/>
					<path id="Caminho_162" class="st2" d="M2415.3,461.4h-222.6V348.3h222.6c31.2,0,56.6,25.3,56.6,56.6c0,0,0,0,0,0l0,0
						C2471.8,436,2446.5,461.4,2415.3,461.4L2415.3,461.4z"/>
					<path id="Retângulo_88" class="st1" d="M2190.4,379.2h10.7c4.7,0,8.5,3.8,8.5,8.5v33c0,4.7-3.8,8.5-8.5,8.5h-10.7
						c-4.7,0-8.5-3.8-8.5-8.5v-33C2181.8,383,2185.7,379.2,2190.4,379.2z"/>
				</g>
				<g id="Grupo_38">
					<rect id="Retângulo_89" x="2123.3" y="396.4" class="st1" width="80" height="15.3"/>
					<path id="Caminho_163" class="st2" d="M2415.1,461.2h-222.6V348.1h222.6c31.2,0,56.6,25.3,56.6,56.6c0,0,0,0,0,0l0,0
						C2471.6,435.9,2446.3,461.2,2415.1,461.2C2415.1,461.2,2415.1,461.2,2415.1,461.2z"/>
					<path id="Retângulo_90" class="st1" d="M2190.2,379h10.7c4.7,0,8.5,3.8,8.5,8.5v33c0,4.7-3.8,8.5-8.5,8.5h-10.7
						c-4.7,0-8.5-3.8-8.5-8.5v-33C2181.7,382.8,2185.5,379,2190.2,379z"/>
				</g>
				<g id="Grupo_39">
					<rect id="Retângulo_91" x="2123.1" y="396.3" class="st1" width="80" height="15.3"/>
					<path id="Caminho_164" class="st2" d="M2414.9,461h-222.6V347.9h222.6c31.2,0,56.6,25.3,56.6,56.6l0,0
						C2471.5,435.7,2446.2,461,2414.9,461z"/>
					<path id="Retângulo_92" class="st1" d="M2190.1,378.9h10.7c4.7,0,8.5,3.8,8.5,8.5v33c0,4.7-3.8,8.5-8.5,8.5h-10.7
						c-4.7,0-8.5-3.8-8.5-8.5v-33C2181.5,382.7,2185.3,378.9,2190.1,378.9z"/>
				</g>
				<g id="Grupo_40">
					<rect id="Retângulo_93" x="2123" y="396.1" class="st1" width="80" height="15.3"/>
					<path id="Caminho_165" class="st2" d="M2414.8,460.9h-222.6V347.8h222.6c31.2,0,56.6,25.3,56.6,56.6c0,0,0,0,0,0l0,0
						C2471.3,435.6,2446,460.9,2414.8,460.9z"/>
					<path id="Retângulo_94" class="st1" d="M2189.9,378.7h10.7c4.7,0,8.5,3.8,8.5,8.5v33c0,4.7-3.8,8.5-8.5,8.5h-10.7
						c-4.7,0-8.5-3.8-8.5-8.5v-33C2181.4,382.5,2185.2,378.7,2189.9,378.7z"/>
				</g>
				<g id="Grupo_41">
					<rect id="Retângulo_95" x="2122.8" y="396" class="st1" width="80" height="15.3"/>
					<path id="Caminho_166" class="st2" d="M2414.6,460.7H2192V347.6h222.6c31.2,0,56.6,25.3,56.6,56.6l0,0
						C2471.2,435.4,2445.8,460.7,2414.6,460.7L2414.6,460.7z"/>
					<path id="Retângulo_96" class="st1" d="M2189.7,378.5h10.7c4.7,0,8.5,3.8,8.5,8.5v33c0,4.7-3.8,8.5-8.5,8.5h-10.7
						c-4.7,0-8.5-3.8-8.5-8.5v-33C2181.2,382.3,2185,378.5,2189.7,378.5z"/>
				</g>
				<g id="Grupo_42">
					<rect id="Retângulo_97" x="2122.6" y="395.8" class="st1" width="80" height="15.3"/>
					<path id="Caminho_167" class="st2" d="M2414.4,460.5h-222.6V347.4h222.6c31.2,0,56.6,25.3,56.6,56.6c0,0,0,0,0,0l0,0
						C2471,435.2,2445.7,460.5,2414.4,460.5z"/>
					<path id="Retângulo_98" class="st1" d="M2189.6,378.4h10.7c4.7,0,8.5,3.8,8.5,8.5v33c0,4.7-3.8,8.5-8.5,8.5h-10.7
						c-4.7,0-8.5-3.8-8.5-8.5v-33C2181,382.2,2184.9,378.4,2189.6,378.4z"/>
				</g>
				<g id="Grupo_43">
					<rect id="Retângulo_99" x="2122.5" y="395.6" class="st1" width="80" height="15.3"/>
					<path id="Caminho_168" class="st2" d="M2414.3,460.4h-222.6V347.3h222.6c31.2,0,56.6,25.3,56.6,56.6l0,0
						C2470.8,435.1,2445.5,460.4,2414.3,460.4z"/>
					<path id="Retângulo_100" class="st1" d="M2189.4,378.2h10.7c4.7,0,8.5,3.8,8.5,8.5v33c0,4.7-3.8,8.5-8.5,8.5h-10.7
						c-4.7,0-8.5-3.8-8.5-8.5v-33C2180.9,382,2184.7,378.2,2189.4,378.2z"/>
				</g>
				<g id="Grupo_44">
					<rect id="Retângulo_101" x="2122.3" y="395.5" class="st1" width="80" height="15.3"/>
					<path id="Caminho_169" class="st2" d="M2414.1,460.2h-222.6V347.1h222.6c31.2,0,56.6,25.3,56.6,56.6l0,0
						C2470.7,434.9,2445.4,460.2,2414.1,460.2L2414.1,460.2z"/>
					<path id="Retângulo_102" class="st1" d="M2189.2,378h10.7c4.7,0,8.5,3.8,8.5,8.5v33c0,4.7-3.8,8.5-8.5,8.5h-10.7
						c-4.7,0-8.5-3.8-8.5-8.5v-33C2180.7,381.9,2184.5,378,2189.2,378z"/>
				</g>
				<g id="Grupo_45">
					<rect id="Retângulo_103" x="2122.1" y="395.3" class="st1" width="80" height="15.3"/>
					<path id="Caminho_170" class="st2" d="M2414,460.1h-222.6V347H2414c31.2,0,56.6,25.3,56.6,56.6c0,0,0,0,0,0l0,0
						C2470.5,434.7,2445.2,460.1,2414,460.1z"/>
					<path id="Retângulo_104" class="st1" d="M2189.1,377.9h10.7c4.7,0,8.5,3.8,8.5,8.5v33c0,4.7-3.8,8.5-8.5,8.5h-10.7
						c-4.7,0-8.5-3.8-8.5-8.5v-33C2180.5,381.7,2184.4,377.9,2189.1,377.9z"/>
				</g>
				<g id="Grupo_46">
					<rect id="Retângulo_105" x="2122" y="395.1" class="st1" width="80" height="15.3"/>
					<path id="Caminho_171" class="st2" d="M2413.8,459.9h-222.6V346.8h222.6c31.2,0,56.6,25.3,56.6,56.6c0,0,0,0,0,0l0,0
						C2470.4,434.6,2445,459.9,2413.8,459.9C2413.8,459.9,2413.8,459.9,2413.8,459.9z"/>
					<path id="Retângulo_106" class="st1" d="M2188.9,377.7h10.7c4.7,0,8.5,3.8,8.5,8.5v33c0,4.7-3.8,8.5-8.5,8.5h-10.7
						c-4.7,0-8.5-3.8-8.5-8.5v-33C2180.4,381.5,2184.2,377.7,2188.9,377.7z"/>
				</g>
				<g id="Grupo_47">
					<rect id="Retângulo_107" x="2121.8" y="395" class="st1" width="80" height="15.3"/>
					<path id="Caminho_172" class="st2" d="M2413.6,459.7h-222.6V346.6h222.6c31.2,0,56.6,25.3,56.6,56.6l0,0
						C2470.2,434.4,2444.9,459.7,2413.6,459.7L2413.6,459.7z"/>
					<path id="Retângulo_108" class="st1" d="M2188.8,377.6h10.7c4.7,0,8.5,3.8,8.5,8.5v33c0,4.7-3.8,8.5-8.5,8.5h-10.7
						c-4.7,0-8.5-3.8-8.5-8.5v-33C2180.2,381.4,2184,377.6,2188.8,377.6z"/>
				</g>
				<g id="Grupo_48">
					<rect id="Retângulo_109" x="2121.7" y="394.8" class="st1" width="80" height="15.3"/>
					<path id="Caminho_173" class="st2" d="M2413.5,459.6h-222.6V346.5h222.6c31.2,0,56.6,25.3,56.6,56.6c0,0,0,0,0,0l0,0
						C2470,434.3,2444.7,459.6,2413.5,459.6z"/>
					<path id="Retângulo_110" class="st1" d="M2188.6,377.4h10.7c4.7,0,8.5,3.8,8.5,8.5v33c0,4.7-3.8,8.5-8.5,8.5h-10.7
						c-4.7,0-8.5-3.8-8.5-8.5v-33C2180.1,381.2,2183.9,377.4,2188.6,377.4z"/>
				</g>
				<g id="Grupo_49">
					<rect id="Retângulo_111" x="2121.5" y="394.7" class="st1" width="80" height="15.3"/>
					<path id="Caminho_174" class="st2" d="M2413.3,459.4h-222.6V346.3h222.6c31.2,0,56.6,25.3,56.6,56.6c0,0,0,0,0,0l0,0
						C2469.9,434.1,2444.5,459.4,2413.3,459.4C2413.3,459.4,2413.3,459.4,2413.3,459.4z"/>
					<path id="Retângulo_112" class="st1" d="M2188.4,377.2h10.7c4.7,0,8.5,3.8,8.5,8.5v33c0,4.7-3.8,8.5-8.5,8.5h-10.7
						c-4.7,0-8.5-3.8-8.5-8.5v-33C2179.9,381.1,2183.7,377.2,2188.4,377.2z"/>
				</g>
				<g id="Grupo_50">
					<rect id="Retângulo_113" x="2121.3" y="394.5" class="st1" width="80" height="15.3"/>
					<path id="Caminho_175" class="st2" d="M2413.1,459.2h-222.6V346.1h222.6c31.2,0,56.6,25.3,56.6,56.6c0,0,0,0,0,0l0,0
						C2469.7,433.9,2444.4,459.2,2413.1,459.2z"/>
					<path id="Retângulo_114" class="st1" d="M2188.3,377.1h10.7c4.7,0,8.5,3.8,8.5,8.5v33c0,4.7-3.8,8.5-8.5,8.5h-10.7
						c-4.7,0-8.5-3.8-8.5-8.5v-33C2179.7,380.9,2183.6,377.1,2188.3,377.1z"/>
				</g>
				<g id="Grupo_51">
					<rect id="Retângulo_115" x="2121.2" y="394.3" class="st1" width="80" height="15.3"/>
					<path id="Caminho_176" class="st2" d="M2413,459.1h-222.6V346H2413c31.2,0,56.6,25.3,56.6,56.6c0,0,0,0,0,0l0,0
						C2469.5,433.8,2444.2,459.1,2413,459.1z"/>
					<path id="Retângulo_116" class="st1" d="M2188.1,376.9h10.7c4.7,0,8.5,3.8,8.5,8.5v33c0,4.7-3.8,8.5-8.5,8.5h-10.7
						c-4.7,0-8.5-3.8-8.5-8.5v-33C2179.6,380.7,2183.4,376.9,2188.1,376.9z"/>
				</g>
				<g id="Grupo_52">
					<rect id="Retângulo_117" x="2121" y="394.2" class="st1" width="80" height="15.3"/>
					<path id="Caminho_177" class="st2" d="M2412.8,458.9h-222.6V345.8h222.6c31.2,0,56.6,25.3,56.6,56.6c0,0,0,0,0,0l0,0
						C2469.4,433.6,2444.1,458.9,2412.8,458.9z"/>
					<path id="Retângulo_118" class="st1" d="M2187.9,376.7h10.7c4.7,0,8.5,3.8,8.5,8.5v33c0,4.7-3.8,8.5-8.5,8.5h-10.7
						c-4.7,0-8.5-3.8-8.5-8.5v-33C2179.4,380.6,2183.2,376.7,2187.9,376.7z"/>
				</g>
				<g id="Grupo_53">
					<rect id="Retângulo_119" x="2120.8" y="394" class="st1" width="80" height="15.3"/>
					<path id="Caminho_178" class="st2" d="M2412.7,458.8h-222.6V345.7h222.6c31.2,0,56.6,25.3,56.6,56.5c0,0,0,0,0,0v0l0,0
						C2469.2,433.4,2443.9,458.8,2412.7,458.8L2412.7,458.8z"/>
					<path id="Retângulo_120" class="st1" d="M2187.8,376.6h10.7c4.7,0,8.5,3.8,8.5,8.5v33c0,4.7-3.8,8.5-8.5,8.5h-10.7
						c-4.7,0-8.5-3.8-8.5-8.5v-33C2179.2,380.4,2183.1,376.6,2187.8,376.6z"/>
				</g>
				<g id="Grupo_54">
					<rect id="Retângulo_121" x="2120.7" y="393.8" class="st1" width="80" height="15.3"/>
					<path id="Caminho_179" class="st2" d="M2412.5,458.6h-222.6V345.5h222.6c31.2,0,56.6,25.3,56.6,56.6l0,0
						C2469.1,433.3,2443.7,458.6,2412.5,458.6C2412.5,458.6,2412.5,458.6,2412.5,458.6z"/>
					<path id="Retângulo_122" class="st1" d="M2187.6,376.4h10.7c4.7,0,8.5,3.8,8.5,8.5v33c0,4.7-3.8,8.5-8.5,8.5h-10.7
						c-4.7,0-8.5-3.8-8.5-8.5v-33C2179.1,380.2,2182.9,376.4,2187.6,376.4z"/>
				</g>
				<g id="Grupo_55">
					<rect id="Retângulo_123" x="2120.5" y="393.7" class="st1" width="80" height="15.3"/>
					<path id="Caminho_180" class="st2" d="M2412.3,458.4h-222.6V345.3h222.6c31.2,0,56.6,25.3,56.6,56.6l0,0
						C2468.9,433.1,2443.6,458.4,2412.3,458.4z"/>
					<path id="Retângulo_124" class="st1" d="M2187.5,376.3h10.7c4.7,0,8.5,3.8,8.5,8.5v33c0,4.7-3.8,8.5-8.5,8.5h-10.7
						c-4.7,0-8.5-3.8-8.5-8.5v-33C2178.9,380.1,2182.7,376.3,2187.5,376.3z"/>
				</g>
				<g id="Grupo_56">
					<rect id="Retângulo_125" x="2120.4" y="393.5" class="st1" width="80" height="15.3"/>
					<path id="Caminho_181" class="st2" d="M2412.2,458.3h-222.6V345.2h222.6c31.2,0,56.6,25.3,56.6,56.6l0,0
						C2468.7,433,2443.4,458.3,2412.2,458.3C2412.2,458.3,2412.2,458.3,2412.2,458.3z"/>
					<path id="Retângulo_126" class="st1" d="M2187.3,376.1h10.7c4.7,0,8.5,3.8,8.5,8.5v33c0,4.7-3.8,8.5-8.5,8.5h-10.7
						c-4.7,0-8.5-3.8-8.5-8.5v-33C2178.8,379.9,2182.6,376.1,2187.3,376.1z"/>
				</g>
				<g id="Grupo_57">
					<rect id="Retângulo_127" x="2120.2" y="393.4" class="st1" width="80" height="15.3"/>
					<path id="Caminho_182" class="st2" d="M2412,458.1h-222.6V345H2412c31.2,0,56.6,25.3,56.6,56.5c0,0,0,0,0,0l0,0l0,0
						C2468.6,432.8,2443.2,458.1,2412,458.1L2412,458.1z"/>
					<path id="Retângulo_128" class="st1" d="M2187.1,375.9h10.7c4.7,0,8.5,3.8,8.5,8.5v33c0,4.7-3.8,8.5-8.5,8.5h-10.7
						c-4.7,0-8.5-3.8-8.5-8.5v-33C2178.6,379.8,2182.4,375.9,2187.1,375.9z"/>
				</g>
				<g id="Grupo_58">
					<rect id="Retângulo_129" x="2120" y="393.2" class="st1" width="80" height="15.3"/>
					<path id="Caminho_183" class="st2" d="M2411.8,458h-222.6V344.8h222.6c31.2,0,56.6,25.3,56.6,56.6c0,0,0,0,0,0l0,0
						C2468.4,432.6,2443.1,457.9,2411.8,458z"/>
					<path id="Retângulo_130" class="st1" d="M2187,375.8h10.7c4.7,0,8.5,3.8,8.5,8.5v33c0,4.7-3.8,8.5-8.5,8.5H2187
						c-4.7,0-8.5-3.8-8.5-8.5v-33C2178.4,379.6,2182.3,375.8,2187,375.8z"/>
				</g>
				<g id="Grupo_59">
					<rect id="Retângulo_131" x="2119.9" y="393" class="st1" width="80" height="15.3"/>
					<path id="Caminho_184" class="st2" d="M2411.7,457.8h-222.6V344.7h222.6c31.2,0,56.6,25.3,56.6,56.6c0,0,0,0,0,0l0,0
						C2468.2,432.5,2442.9,457.8,2411.7,457.8L2411.7,457.8z"/>
					<path id="Retângulo_132" class="st1" d="M2186.8,375.6h10.7c4.7,0,8.5,3.8,8.5,8.5v33c0,4.7-3.8,8.5-8.5,8.5h-10.7
						c-4.7,0-8.5-3.8-8.5-8.5v-33C2178.3,379.4,2182.1,375.6,2186.8,375.6z"/>
				</g>
				<g id="Grupo_60">
					<rect id="Retângulo_133" x="2119.7" y="392.9" class="st1" width="80" height="15.3"/>
					<path id="Caminho_185" class="st2" d="M2411.5,457.6h-222.6V344.5h222.6c31.2,0,56.6,25.3,56.6,56.6c0,0,0,0,0,0l0,0
						C2468.1,432.3,2442.8,457.6,2411.5,457.6z"/>
					<path id="Retângulo_134" class="st1" d="M2186.6,375.4h10.7c4.7,0,8.5,3.8,8.5,8.5v33c0,4.7-3.8,8.5-8.5,8.5h-10.7
						c-4.7,0-8.5-3.8-8.5-8.5v-33C2178.1,379.3,2181.9,375.4,2186.6,375.4z"/>
				</g>
				<g id="Grupo_61">
					<rect id="Retângulo_135" x="2119.5" y="392.7" class="st1" width="80" height="15.3"/>
					<path id="Caminho_186" class="st2" d="M2411.4,457.5h-222.6V344.4h222.6c31.2,0,56.6,25.3,56.6,56.5c0,0,0,0,0,0l0,0l0,0
						C2467.9,432.1,2442.6,457.5,2411.4,457.5L2411.4,457.5z"/>
					<path id="Retângulo_136" class="st1" d="M2186.5,375.3h10.7c4.7,0,8.5,3.8,8.5,8.5v33c0,4.7-3.8,8.5-8.5,8.5h-10.7
						c-4.7,0-8.5-3.8-8.5-8.5v-33C2177.9,379.1,2181.8,375.3,2186.5,375.3z"/>
				</g>
				<g id="Grupo_62">
					<rect id="Retângulo_137" x="2119.4" y="392.5" class="st1" width="80" height="15.3"/>
					<path id="Caminho_187" class="st2" d="M2411.2,457.3h-222.6V344.2h222.6c31.2,0,56.6,25.3,56.6,56.6l0,0
						C2467.8,432,2442.4,457.3,2411.2,457.3C2411.2,457.3,2411.2,457.3,2411.2,457.3z"/>
					<path id="Retângulo_138" class="st1" d="M2186.3,375.1h10.7c4.7,0,8.5,3.8,8.5,8.5v33c0,4.7-3.8,8.5-8.5,8.5h-10.7
						c-4.7,0-8.5-3.8-8.5-8.5v-33C2177.8,378.9,2181.6,375.1,2186.3,375.1z"/>
				</g>
				<g id="Grupo_63">
					<rect id="Retângulo_139" x="2119.2" y="392.4" class="st1" width="80" height="15.3"/>
					<path id="Caminho_188" class="st2" d="M2411,457.1h-222.6V344H2411c31.2,0,56.6,25.3,56.6,56.6c0,0,0,0,0,0l0,0
						C2467.6,431.8,2442.3,457.1,2411,457.1z"/>
					<path id="Retângulo_140" class="st1" d="M2186.2,375h10.7c4.7,0,8.5,3.8,8.5,8.5v33c0,4.7-3.8,8.5-8.5,8.5h-10.7
						c-4.7,0-8.5-3.8-8.5-8.5v-33C2177.6,378.8,2181.4,375,2186.2,375z"/>
				</g>
				<g id="Grupo_64">
					<rect id="Retângulo_141" x="2119.1" y="392.2" class="st1" width="80" height="15.3"/>
					<path id="Caminho_189" class="st2" d="M2410.9,457h-222.6V343.9h222.6c31.2,0,56.6,25.3,56.6,56.6l0,0
						C2467.4,431.7,2442.1,457,2410.9,457L2410.9,457z"/>
					<path id="Retângulo_142" class="st1" d="M2186,374.8h10.7c4.7,0,8.5,3.8,8.5,8.5v33c0,4.7-3.8,8.5-8.5,8.5H2186
						c-4.7,0-8.5-3.8-8.5-8.5v-33C2177.5,378.6,2181.3,374.8,2186,374.8z"/>
				</g>
				<g id="Grupo_65">
					<rect id="Retângulo_143" x="2118.9" y="392.1" class="st1" width="80" height="15.3"/>
					<path id="Caminho_190" class="st2" d="M2410.7,456.8h-222.6V343.7h222.6c31.2,0,56.6,25.3,56.6,56.6c0,0,0,0,0,0l0,0
						C2467.3,431.5,2441.9,456.8,2410.7,456.8z"/>
					<path id="Retângulo_144" class="st1" d="M2185.8,374.6h10.7c4.7,0,8.5,3.8,8.5,8.5v33c0,4.7-3.8,8.5-8.5,8.5h-10.7
						c-4.7,0-8.5-3.8-8.5-8.5v-33C2177.3,378.5,2181.1,374.6,2185.8,374.6z"/>
				</g>
				<g id="Grupo_66">
					<rect id="Retângulo_145" x="2118.7" y="391.9" class="st1" width="80" height="15.3"/>
					<path id="Caminho_191" class="st2" d="M2410.5,456.7H2188V343.5h222.6c31.2,0,56.6,25.3,56.6,56.6c0,0,0,0,0,0l0,0
						C2467.1,431.3,2441.8,456.6,2410.5,456.7z"/>
					<path id="Retângulo_146" class="st1" d="M2185.7,374.5h10.7c4.7,0,8.5,3.8,8.5,8.5v33c0,4.7-3.8,8.5-8.5,8.5h-10.7
						c-4.7,0-8.5-3.8-8.5-8.5v-33C2177.1,378.3,2181,374.5,2185.7,374.5z"/>
				</g>
				<g id="Grupo_67">
					<rect id="Retângulo_147" x="2118.6" y="391.7" class="st1" width="80" height="15.3"/>
					<path id="Caminho_192" class="st2" d="M2410.4,456.5h-222.6V343.4h222.6c31.2,0,56.6,25.3,56.6,56.6l0,0
						C2466.9,431.2,2441.6,456.5,2410.4,456.5z"/>
					<path id="Retângulo_148" class="st1" d="M2185.5,374.3h10.7c4.7,0,8.5,3.8,8.5,8.5v33c0,4.7-3.8,8.5-8.5,8.5h-10.7
						c-4.7,0-8.5-3.8-8.5-8.5v-33C2177,378.1,2180.8,374.3,2185.5,374.3z"/>
				</g>
				<g id="Grupo_68">
					<rect id="Retângulo_149" x="2118.4" y="391.6" class="st1" width="80" height="15.3"/>
					<path id="Caminho_193" class="st2" d="M2410.2,456.3h-222.6V343.2h222.6c31.2,0,56.6,25.3,56.6,56.6c0,0,0,0,0,0l0,0
						C2466.8,431,2441.5,456.3,2410.2,456.3L2410.2,456.3z"/>
					<path id="Retângulo_150" class="st1" d="M2185.3,374.1h10.7c4.7,0,8.5,3.8,8.5,8.5v33c0,4.7-3.8,8.5-8.5,8.5h-10.7
						c-4.7,0-8.5-3.8-8.5-8.5v-33C2176.8,378,2180.6,374.1,2185.3,374.1z"/>
				</g>
				<g id="Grupo_69">
					<rect id="Retângulo_151" x="2118.2" y="391.4" class="st1" width="80" height="15.3"/>
					<path id="Caminho_194" class="st2" d="M2410.1,456.2h-222.6V343.1h222.6c31.2,0,56.6,25.3,56.6,56.6l0,0l0,0
						C2466.6,430.8,2441.3,456.2,2410.1,456.2L2410.1,456.2z"/>
					<path id="Retângulo_152" class="st1" d="M2185.2,374h10.7c4.7,0,8.5,3.8,8.5,8.5v33c0,4.7-3.8,8.5-8.5,8.5h-10.7
						c-4.7,0-8.5-3.8-8.5-8.5v-33C2176.6,377.8,2180.5,374,2185.2,374z"/>
				</g>
				<g id="Grupo_70">
					<rect id="Retângulo_153" x="2118.1" y="391.2" class="st1" width="80" height="15.3"/>
					<path id="Caminho_195" class="st2" d="M2409.9,456h-222.6V342.9h222.6c31.2,0,56.6,25.3,56.6,56.5l0,0
						C2466.5,430.7,2441.1,456,2409.9,456C2409.9,456,2409.9,456,2409.9,456z"/>
					<path id="Retângulo_154" class="st1" d="M2185,373.8h10.7c4.7,0,8.5,3.8,8.5,8.5v33c0,4.7-3.8,8.5-8.5,8.5H2185
						c-4.7,0-8.5-3.8-8.5-8.5v-33C2176.5,377.6,2180.3,373.8,2185,373.8z"/>
				</g>
				<g id="Grupo_71">
					<rect id="Retângulo_155" x="2117.9" y="391.1" class="st1" width="80" height="15.3"/>
					<path id="Caminho_196" class="st2" d="M2409.7,455.8h-222.6V342.7h222.6c31.2,0,56.6,25.3,56.6,56.5c0,0,0,0,0,0l0,0l0,0
						C2466.3,430.5,2441,455.8,2409.7,455.8L2409.7,455.8z"/>
					<path id="Retângulo_156" class="st1" d="M2184.9,373.7h10.7c4.7,0,8.5,3.8,8.5,8.5v33c0,4.7-3.8,8.5-8.5,8.5h-10.7
						c-4.7,0-8.5-3.8-8.5-8.5v-33C2176.3,377.5,2180.1,373.7,2184.9,373.7z"/>
				</g>
				<g id="Grupo_72">
					<rect id="Retângulo_157" x="2117.8" y="390.9" class="st1" width="80" height="15.3"/>
					<path id="Retângulo_158" class="st3" d="M2187,342.6h222.6c31.2,0,56.6,25.3,56.6,56.6c0,0,0,0,0,0l0,0
						c0,31.2-25.3,56.6-56.6,56.6H2187V342.6z"/>
					<path id="Retângulo_159" class="st1" d="M2184.7,373.5h10.7c4.7,0,8.5,3.8,8.5,8.5v33c0,4.7-3.8,8.5-8.5,8.5h-10.7
						c-4.7,0-8.5-3.8-8.5-8.5v-33C2176.2,377.3,2180,373.5,2184.7,373.5z"/>
				</g>
			</g>
			<circle id="Elipse_14" class="st4" cx="2447" cy="398.6" r="3.7"/>
			<circle id="Elipse_15" class="st4" cx="2196.2" cy="381.4" r="2.5"/>
			<circle id="Elipse_16" class="st4" cx="2196.2" cy="416.9" r="2.5"/>
			<circle id="Elipse_17" class="st4" cx="2196.2" cy="398.6" r="2.5"/>
			<circle id="Elipse_18" class="st4" cx="2419.3" cy="431.5" r="3.7"/>
			<circle id="Elipse_19" class="st4" cx="2419.3" cy="365.6" r="3.7"/>
		</g>
	</g>
</g>
<text transform="matrix(1 0 0 1 61 100.5)" class="st5 st6 st7">About</text>
<text transform="matrix(1 0 0 1 61 100.5)" class="st8 st6 st7">About</text>
</svg>
