<svg id="Componente_3_13" data-name="Componente 3 – 13" xmlns="http://www.w3.org/2000/svg" xmlns:xlink="http://www.w3.org/1999/xlink" width="333.566" height="167.4" viewBox="0 0 333.566 167.4">
  <defs>
    <clipPath id="clip-path">
      <rect id="SVGID" width="333.566" height="167.4" transform="translate(2157.754 319.949)" fill="none"/>
    </clipPath>
  </defs>
  <g id="Grupo_297" data-name="Grupo 297" transform="translate(-2157.754 -319.949)">
    <g id="Grupo_293" data-name="Grupo 293" clip-path="url(#clip-path)">
      <g id="Grupo_73" data-name="Grupo 73">
        <g id="Grupo_21" data-name="Grupo 21">
          <rect id="Retângulo_54" data-name="Retângulo 54" width="79.997" height="15.261" transform="translate(2126.035 399.205)" fill="#ffd243" stroke="#37005b" stroke-linecap="round" stroke-linejoin="round" stroke-width="3"/>
          <path id="Retângulo_55" data-name="Retângulo 55" d="M2195.278,350.849h222.577a56.553,56.553,0,0,1,56.553,56.554h0a56.554,56.554,0,0,1-56.554,56.554H2195.278V350.849Z" fill="#b1e9ef" stroke="#37005b" stroke-linecap="round" stroke-linejoin="round" stroke-width="3"/>
          <rect id="Retângulo_56" data-name="Retângulo 56" width="27.758" height="50.118" rx="8.534" transform="translate(2184.443 381.776)" fill="#ffd243" stroke="#37005b" stroke-linecap="round" stroke-linejoin="round" stroke-width="3"/>
        </g>
        <g id="Grupo_22" data-name="Grupo 22">
          <rect id="Retângulo_57" data-name="Retângulo 57" width="79.997" height="15.261" transform="translate(2125.873 399.042)" fill="#ffd243" stroke="#37005b" stroke-linecap="round" stroke-linejoin="round" stroke-width="3"/>
          <path id="Caminho_147" data-name="Caminho 147" d="M2417.692,463.794H2195.118V350.687h222.574a56.554,56.554,0,0,1,56.554,56.554v0h0A56.554,56.554,0,0,1,2417.692,463.794Z" fill="#b1e9ef" stroke="#37005b" stroke-linecap="round" stroke-linejoin="round" stroke-width="3"/>
          <rect id="Retângulo_58" data-name="Retângulo 58" width="27.758" height="50.118" rx="8.534" transform="translate(2184.28 381.613)" fill="#ffd243" stroke="#37005b" stroke-linecap="round" stroke-linejoin="round" stroke-width="3"/>
        </g>
        <g id="Grupo_23" data-name="Grupo 23">
          <rect id="Retângulo_59" data-name="Retângulo 59" width="79.997" height="15.261" transform="translate(2125.711 398.88)" fill="#ffd243" stroke="#37005b" stroke-linecap="round" stroke-linejoin="round" stroke-width="3"/>
          <path id="Caminho_148" data-name="Caminho 148" d="M2417.53,463.632H2194.953V350.525H2417.53a56.553,56.553,0,0,1,56.554,56.553h0a56.554,56.554,0,0,1-56.554,56.554Z" fill="#b1e9ef" stroke="#37005b" stroke-linecap="round" stroke-linejoin="round" stroke-width="3"/>
          <rect id="Retângulo_60" data-name="Retângulo 60" width="27.758" height="50.118" rx="8.534" transform="translate(2184.118 381.451)" fill="#ffd243" stroke="#37005b" stroke-linecap="round" stroke-linejoin="round" stroke-width="3"/>
        </g>
        <g id="Grupo_24" data-name="Grupo 24">
          <rect id="Retângulo_61" data-name="Retângulo 61" width="79.997" height="15.261" transform="translate(2125.548 398.718)" fill="#ffd243" stroke="#37005b" stroke-linecap="round" stroke-linejoin="round" stroke-width="3"/>
          <path id="Caminho_149" data-name="Caminho 149" d="M2417.368,463.47H2194.791V350.362h222.577a56.554,56.554,0,0,1,56.55,56.554h0A56.554,56.554,0,0,1,2417.368,463.47Z" fill="#b1e9ef" stroke="#37005b" stroke-linecap="round" stroke-linejoin="round" stroke-width="3"/>
          <rect id="Retângulo_62" data-name="Retângulo 62" width="27.758" height="50.118" rx="8.534" transform="translate(2183.956 381.289)" fill="#ffd243" stroke="#37005b" stroke-linecap="round" stroke-linejoin="round" stroke-width="3"/>
        </g>
        <g id="Grupo_25" data-name="Grupo 25">
          <rect id="Retângulo_63" data-name="Retângulo 63" width="79.997" height="15.261" transform="translate(2125.386 398.555)" fill="#ffd243" stroke="#37005b" stroke-linecap="round" stroke-linejoin="round" stroke-width="3"/>
          <path id="Caminho_150" data-name="Caminho 150" d="M2417.205,463.307H2194.629V350.2h222.576a56.554,56.554,0,0,1,56.554,56.554h0A56.554,56.554,0,0,1,2417.205,463.307Z" fill="#b1e9ef" stroke="#37005b" stroke-linecap="round" stroke-linejoin="round" stroke-width="3"/>
          <rect id="Retângulo_64" data-name="Retângulo 64" width="27.758" height="50.118" rx="8.534" transform="translate(2183.793 381.126)" fill="#ffd243" stroke="#37005b" stroke-linecap="round" stroke-linejoin="round" stroke-width="3"/>
        </g>
        <g id="Grupo_26" data-name="Grupo 26">
          <rect id="Retângulo_65" data-name="Retângulo 65" width="79.997" height="15.261" transform="translate(2125.224 398.393)" fill="#ffd243" stroke="#37005b" stroke-linecap="round" stroke-linejoin="round" stroke-width="3"/>
          <path id="Caminho_151" data-name="Caminho 151" d="M2417.043,463.144H2194.466V350.038h222.577a56.551,56.551,0,0,1,56.553,56.551v0h0A56.553,56.553,0,0,1,2417.043,463.144Z" fill="#b1e9ef" stroke="#37005b" stroke-linecap="round" stroke-linejoin="round" stroke-width="3"/>
          <rect id="Retângulo_66" data-name="Retângulo 66" width="27.758" height="50.118" rx="8.534" transform="translate(2183.631 380.964)" fill="#ffd243" stroke="#37005b" stroke-linecap="round" stroke-linejoin="round" stroke-width="3"/>
        </g>
        <g id="Grupo_27" data-name="Grupo 27">
          <rect id="Retângulo_67" data-name="Retângulo 67" width="79.997" height="15.261" transform="translate(2125.061 398.23)" fill="#ffd243" stroke="#37005b" stroke-linecap="round" stroke-linejoin="round" stroke-width="3"/>
          <path id="Caminho_152" data-name="Caminho 152" d="M2416.88,462.983H2194.3V349.875H2416.88a56.554,56.554,0,0,1,56.554,56.554h0a56.554,56.554,0,0,1-56.554,56.554Z" fill="#b1e9ef" stroke="#37005b" stroke-linecap="round" stroke-linejoin="round" stroke-width="3"/>
          <rect id="Retângulo_68" data-name="Retângulo 68" width="27.758" height="50.118" rx="8.534" transform="translate(2183.468 380.802)" fill="#ffd243" stroke="#37005b" stroke-linecap="round" stroke-linejoin="round" stroke-width="3"/>
        </g>
        <g id="Grupo_28" data-name="Grupo 28">
          <rect id="Retângulo_69" data-name="Retângulo 69" width="79.997" height="15.261" transform="translate(2124.899 398.068)" fill="#ffd243" stroke="#37005b" stroke-linecap="round" stroke-linejoin="round" stroke-width="3"/>
          <path id="Caminho_153" data-name="Caminho 153" d="M2416.718,462.82H2194.142V349.713h222.576a56.554,56.554,0,0,1,56.554,56.554h0A56.554,56.554,0,0,1,2416.718,462.82Z" fill="#b1e9ef" stroke="#37005b" stroke-linecap="round" stroke-linejoin="round" stroke-width="3"/>
          <rect id="Retângulo_70" data-name="Retângulo 70" width="27.758" height="50.118" rx="8.534" transform="translate(2183.306 380.639)" fill="#ffd243" stroke="#37005b" stroke-linecap="round" stroke-linejoin="round" stroke-width="3"/>
        </g>
        <g id="Grupo_29" data-name="Grupo 29">
          <rect id="Retângulo_71" data-name="Retângulo 71" width="79.997" height="15.261" transform="translate(2124.737 397.906)" fill="#ffd243" stroke="#37005b" stroke-linecap="round" stroke-linejoin="round" stroke-width="3"/>
          <path id="Caminho_154" data-name="Caminho 154" d="M2416.556,462.658H2193.979V349.55h222.577a56.553,56.553,0,0,1,56.553,56.554h0A56.554,56.554,0,0,1,2416.556,462.658Z" fill="#b1e9ef" stroke="#37005b" stroke-linecap="round" stroke-linejoin="round" stroke-width="3"/>
          <rect id="Retângulo_72" data-name="Retângulo 72" width="27.758" height="50.118" rx="8.534" transform="translate(2183.144 380.477)" fill="#ffd243" stroke="#37005b" stroke-linecap="round" stroke-linejoin="round" stroke-width="3"/>
        </g>
        <g id="Grupo_30" data-name="Grupo 30">
          <rect id="Retângulo_73" data-name="Retângulo 73" width="79.997" height="15.261" transform="translate(2124.574 397.743)" fill="#ffd243" stroke="#37005b" stroke-linecap="round" stroke-linejoin="round" stroke-width="3"/>
          <path id="Caminho_155" data-name="Caminho 155" d="M2416.393,462.5H2193.818V349.388h222.575a56.554,56.554,0,0,1,56.554,56.554v0h0A56.554,56.554,0,0,1,2416.393,462.5Z" fill="#b1e9ef" stroke="#37005b" stroke-linecap="round" stroke-linejoin="round" stroke-width="3"/>
          <rect id="Retângulo_74" data-name="Retângulo 74" width="27.758" height="50.118" rx="8.534" transform="translate(2182.981 380.314)" fill="#ffd243" stroke="#37005b" stroke-linecap="round" stroke-linejoin="round" stroke-width="3"/>
        </g>
        <g id="Grupo_31" data-name="Grupo 31">
          <rect id="Retângulo_75" data-name="Retângulo 75" width="79.997" height="15.261" transform="translate(2124.412 397.581)" fill="#ffd243" stroke="#37005b" stroke-linecap="round" stroke-linejoin="round" stroke-width="3"/>
          <path id="Caminho_156" data-name="Caminho 156" d="M2416.231,462.333H2193.654V349.226h222.577a56.553,56.553,0,0,1,56.554,56.553h0a56.554,56.554,0,0,1-56.554,56.554Z" fill="#b1e9ef" stroke="#37005b" stroke-linecap="round" stroke-linejoin="round" stroke-width="3"/>
          <rect id="Retângulo_76" data-name="Retângulo 76" width="27.758" height="50.118" rx="8.534" transform="translate(2182.819 380.152)" fill="#ffd243" stroke="#37005b" stroke-linecap="round" stroke-linejoin="round" stroke-width="3"/>
        </g>
        <g id="Grupo_32" data-name="Grupo 32">
          <rect id="Retângulo_77" data-name="Retângulo 77" width="79.997" height="15.261" transform="translate(2124.249 397.419)" fill="#ffd243" stroke="#37005b" stroke-linecap="round" stroke-linejoin="round" stroke-width="3"/>
          <path id="Caminho_157" data-name="Caminho 157" d="M2416.069,462.171H2193.492V349.063h222.577a56.554,56.554,0,0,1,56.549,56.554h0A56.554,56.554,0,0,1,2416.069,462.171Z" fill="#b1e9ef" stroke="#37005b" stroke-linecap="round" stroke-linejoin="round" stroke-width="3"/>
          <rect id="Retângulo_78" data-name="Retângulo 78" width="27.758" height="50.118" rx="8.534" transform="translate(2182.657 379.99)" fill="#ffd243" stroke="#37005b" stroke-linecap="round" stroke-linejoin="round" stroke-width="3"/>
        </g>
        <g id="Grupo_33" data-name="Grupo 33">
          <rect id="Retângulo_79" data-name="Retângulo 79" width="79.997" height="15.261" transform="translate(2124.087 397.256)" fill="#ffd243" stroke="#37005b" stroke-linecap="round" stroke-linejoin="round" stroke-width="3"/>
          <path id="Caminho_158" data-name="Caminho 158" d="M2415.906,462.009H2193.33V348.9h222.576a56.554,56.554,0,0,1,56.554,56.554h0a56.554,56.554,0,0,1-56.554,56.554Z" fill="#b1e9ef" stroke="#37005b" stroke-linecap="round" stroke-linejoin="round" stroke-width="3"/>
          <rect id="Retângulo_80" data-name="Retângulo 80" width="27.758" height="50.118" rx="8.534" transform="translate(2182.494 379.827)" fill="#ffd243" stroke="#37005b" stroke-linecap="round" stroke-linejoin="round" stroke-width="3"/>
        </g>
        <g id="Grupo_34" data-name="Grupo 34">
          <rect id="Retângulo_81" data-name="Retângulo 81" width="79.997" height="15.261" transform="translate(2123.925 397.094)" fill="#ffd243" stroke="#37005b" stroke-linecap="round" stroke-linejoin="round" stroke-width="3"/>
          <path id="Caminho_159" data-name="Caminho 159" d="M2415.744,461.844H2193.167v-113.1h222.577A56.553,56.553,0,0,1,2472.3,405.3h0A56.554,56.554,0,0,1,2415.744,461.844Z" fill="#b1e9ef" stroke="#37005b" stroke-linecap="round" stroke-linejoin="round" stroke-width="3"/>
          <rect id="Retângulo_82" data-name="Retângulo 82" width="27.758" height="50.118" rx="8.534" transform="translate(2182.332 379.665)" fill="#ffd243" stroke="#37005b" stroke-linecap="round" stroke-linejoin="round" stroke-width="3"/>
        </g>
        <g id="Grupo_35" data-name="Grupo 35">
          <rect id="Retângulo_83" data-name="Retângulo 83" width="79.997" height="15.261" transform="translate(2123.762 396.932)" fill="#ffd243" stroke="#37005b" stroke-linecap="round" stroke-linejoin="round" stroke-width="3"/>
          <path id="Caminho_160" data-name="Caminho 160" d="M2415.582,461.684H2193V348.576h222.577a56.553,56.553,0,0,1,56.553,56.554h0A56.554,56.554,0,0,1,2415.582,461.684Z" fill="#b1e9ef" stroke="#37005b" stroke-linecap="round" stroke-linejoin="round" stroke-width="3"/>
          <rect id="Retângulo_84" data-name="Retângulo 84" width="27.758" height="50.118" rx="8.534" transform="translate(2182.17 379.503)" fill="#ffd243" stroke="#37005b" stroke-linecap="round" stroke-linejoin="round" stroke-width="3"/>
        </g>
        <g id="Grupo_36" data-name="Grupo 36">
          <rect id="Retângulo_85" data-name="Retângulo 85" width="79.997" height="15.261" transform="translate(2123.6 396.769)" fill="#ffd243" stroke="#37005b" stroke-linecap="round" stroke-linejoin="round" stroke-width="3"/>
          <path id="Caminho_161" data-name="Caminho 161" d="M2415.418,461.521H2192.843V348.414h222.575a56.554,56.554,0,0,1,56.554,56.554h0a56.553,56.553,0,0,1-56.553,56.553Z" fill="#b1e9ef" stroke="#37005b" stroke-linecap="round" stroke-linejoin="round" stroke-width="3"/>
          <rect id="Retângulo_86" data-name="Retângulo 86" width="27.758" height="50.118" rx="8.534" transform="translate(2182.007 379.34)" fill="#ffd243" stroke="#37005b" stroke-linecap="round" stroke-linejoin="round" stroke-width="3"/>
        </g>
        <g id="Grupo_37" data-name="Grupo 37">
          <rect id="Retângulo_87" data-name="Retângulo 87" width="79.997" height="15.261" transform="translate(2123.438 396.607)" fill="#ffd243" stroke="#37005b" stroke-linecap="round" stroke-linejoin="round" stroke-width="3"/>
          <path id="Caminho_162" data-name="Caminho 162" d="M2415.257,461.359H2192.68V348.252h222.577a56.553,56.553,0,0,1,56.554,56.553h0a56.554,56.554,0,0,1-56.554,56.554Z" fill="#b1e9ef" stroke="#37005b" stroke-linecap="round" stroke-linejoin="round" stroke-width="3"/>
          <rect id="Retângulo_88" data-name="Retângulo 88" width="27.758" height="50.118" rx="8.534" transform="translate(2181.845 379.178)" fill="#ffd243" stroke="#37005b" stroke-linecap="round" stroke-linejoin="round" stroke-width="3"/>
        </g>
        <g id="Grupo_38" data-name="Grupo 38">
          <rect id="Retângulo_89" data-name="Retângulo 89" width="79.997" height="15.261" transform="translate(2123.275 396.445)" fill="#ffd243" stroke="#37005b" stroke-linecap="round" stroke-linejoin="round" stroke-width="3"/>
          <path id="Caminho_163" data-name="Caminho 163" d="M2415.095,461.2H2192.518V348.089h222.577a56.553,56.553,0,0,1,56.553,56.555h0A56.554,56.554,0,0,1,2415.095,461.2Z" fill="#b1e9ef" stroke="#37005b" stroke-linecap="round" stroke-linejoin="round" stroke-width="3"/>
          <rect id="Retângulo_90" data-name="Retângulo 90" width="27.758" height="50.118" rx="8.534" transform="translate(2181.683 379.016)" fill="#ffd243" stroke="#37005b" stroke-linecap="round" stroke-linejoin="round" stroke-width="3"/>
        </g>
        <g id="Grupo_39" data-name="Grupo 39">
          <rect id="Retângulo_91" data-name="Retângulo 91" width="79.997" height="15.261" transform="translate(2123.113 396.282)" fill="#ffd243" stroke="#37005b" stroke-linecap="round" stroke-linejoin="round" stroke-width="3"/>
          <path id="Caminho_164" data-name="Caminho 164" d="M2414.932,461.034H2192.356V347.927h222.576a56.554,56.554,0,0,1,56.554,56.554h0A56.554,56.554,0,0,1,2414.932,461.034Z" fill="#b1e9ef" stroke="#37005b" stroke-linecap="round" stroke-linejoin="round" stroke-width="3"/>
          <rect id="Retângulo_92" data-name="Retângulo 92" width="27.758" height="50.118" rx="8.534" transform="translate(2181.52 378.853)" fill="#ffd243" stroke="#37005b" stroke-linecap="round" stroke-linejoin="round" stroke-width="3"/>
        </g>
        <g id="Grupo_40" data-name="Grupo 40">
          <rect id="Retângulo_93" data-name="Retângulo 93" width="79.997" height="15.261" transform="translate(2122.951 396.12)" fill="#ffd243" stroke="#37005b" stroke-linecap="round" stroke-linejoin="round" stroke-width="3"/>
          <path id="Caminho_165" data-name="Caminho 165" d="M2414.77,460.872H2192.193V347.765H2414.77a56.553,56.553,0,0,1,56.554,56.553h0a56.554,56.554,0,0,1-56.554,56.554Z" fill="#b1e9ef" stroke="#37005b" stroke-linecap="round" stroke-linejoin="round" stroke-width="3"/>
          <rect id="Retângulo_94" data-name="Retângulo 94" width="27.758" height="50.118" rx="8.534" transform="translate(2181.358 378.691)" fill="#ffd243" stroke="#37005b" stroke-linecap="round" stroke-linejoin="round" stroke-width="3"/>
        </g>
        <g id="Grupo_41" data-name="Grupo 41">
          <rect id="Retângulo_95" data-name="Retângulo 95" width="79.997" height="15.261" transform="translate(2122.788 395.957)" fill="#ffd243" stroke="#37005b" stroke-linecap="round" stroke-linejoin="round" stroke-width="3"/>
          <path id="Caminho_166" data-name="Caminho 166" d="M2414.607,460.71H2192.031V347.6h222.576a56.554,56.554,0,0,1,56.554,56.554h0a56.554,56.554,0,0,1-56.554,56.554Z" fill="#b1e9ef" stroke="#37005b" stroke-linecap="round" stroke-linejoin="round" stroke-width="3"/>
          <rect id="Retângulo_96" data-name="Retângulo 96" width="27.758" height="50.118" rx="8.534" transform="translate(2181.196 378.529)" fill="#ffd243" stroke="#37005b" stroke-linecap="round" stroke-linejoin="round" stroke-width="3"/>
        </g>
        <g id="Grupo_42" data-name="Grupo 42">
          <rect id="Retângulo_97" data-name="Retângulo 97" width="79.997" height="15.261" transform="translate(2122.626 395.795)" fill="#ffd243" stroke="#37005b" stroke-linecap="round" stroke-linejoin="round" stroke-width="3"/>
          <path id="Caminho_167" data-name="Caminho 167" d="M2414.445,460.544H2191.869v-113.1h222.576A56.554,56.554,0,0,1,2471,404h0A56.553,56.553,0,0,1,2414.445,460.544Z" fill="#b1e9ef" stroke="#37005b" stroke-linecap="round" stroke-linejoin="round" stroke-width="3"/>
          <rect id="Retângulo_98" data-name="Retângulo 98" width="27.758" height="50.118" rx="8.534" transform="translate(2181.033 378.366)" fill="#ffd243" stroke="#37005b" stroke-linecap="round" stroke-linejoin="round" stroke-width="3"/>
        </g>
        <g id="Grupo_43" data-name="Grupo 43">
          <rect id="Retângulo_99" data-name="Retângulo 99" width="79.997" height="15.261" transform="translate(2122.464 395.633)" fill="#ffd243" stroke="#37005b" stroke-linecap="round" stroke-linejoin="round" stroke-width="3"/>
          <path id="Caminho_168" data-name="Caminho 168" d="M2414.283,460.385H2191.706V347.278h222.577a56.553,56.553,0,0,1,56.553,56.553h0A56.554,56.554,0,0,1,2414.283,460.385Z" fill="#b1e9ef" stroke="#37005b" stroke-linecap="round" stroke-linejoin="round" stroke-width="3"/>
          <rect id="Retângulo_100" data-name="Retângulo 100" width="27.758" height="50.118" rx="8.534" transform="translate(2180.871 378.204)" fill="#ffd243" stroke="#37005b" stroke-linecap="round" stroke-linejoin="round" stroke-width="3"/>
        </g>
        <g id="Grupo_44" data-name="Grupo 44">
          <rect id="Retângulo_101" data-name="Retângulo 101" width="79.997" height="15.261" transform="translate(2122.301 395.47)" fill="#ffd243" stroke="#37005b" stroke-linecap="round" stroke-linejoin="round" stroke-width="3"/>
          <path id="Caminho_169" data-name="Caminho 169" d="M2414.118,460.223H2191.544V347.115h222.574a56.554,56.554,0,0,1,56.554,56.554h0a56.554,56.554,0,0,1-56.554,56.554Z" fill="#b1e9ef" stroke="#37005b" stroke-linecap="round" stroke-linejoin="round" stroke-width="3"/>
          <rect id="Retângulo_102" data-name="Retângulo 102" width="27.758" height="50.118" rx="8.534" transform="translate(2180.708 378.041)" fill="#ffd243" stroke="#37005b" stroke-linecap="round" stroke-linejoin="round" stroke-width="3"/>
        </g>
        <g id="Grupo_45" data-name="Grupo 45">
          <rect id="Retângulo_103" data-name="Retângulo 103" width="79.997" height="15.261" transform="translate(2122.139 395.308)" fill="#ffd243" stroke="#37005b" stroke-linecap="round" stroke-linejoin="round" stroke-width="3"/>
          <path id="Caminho_170" data-name="Caminho 170" d="M2413.958,460.06H2191.381V346.953h222.577a56.553,56.553,0,0,1,56.554,56.553h0a56.554,56.554,0,0,1-56.554,56.554Z" fill="#b1e9ef" stroke="#37005b" stroke-linecap="round" stroke-linejoin="round" stroke-width="3"/>
          <rect id="Retângulo_104" data-name="Retângulo 104" width="27.758" height="50.118" rx="8.534" transform="translate(2180.546 377.879)" fill="#ffd243" stroke="#37005b" stroke-linecap="round" stroke-linejoin="round" stroke-width="3"/>
        </g>
        <g id="Grupo_46" data-name="Grupo 46">
          <rect id="Retângulo_105" data-name="Retângulo 105" width="79.997" height="15.261" transform="translate(2121.977 395.146)" fill="#ffd243" stroke="#37005b" stroke-linecap="round" stroke-linejoin="round" stroke-width="3"/>
          <path id="Caminho_171" data-name="Caminho 171" d="M2413.8,459.9H2191.218V346.79H2413.8a56.553,56.553,0,0,1,56.553,56.554h0A56.554,56.554,0,0,1,2413.8,459.9Z" fill="#b1e9ef" stroke="#37005b" stroke-linecap="round" stroke-linejoin="round" stroke-width="3"/>
          <rect id="Retângulo_106" data-name="Retângulo 106" width="27.758" height="50.118" rx="8.534" transform="translate(2180.384 377.717)" fill="#ffd243" stroke="#37005b" stroke-linecap="round" stroke-linejoin="round" stroke-width="3"/>
        </g>
        <g id="Grupo_47" data-name="Grupo 47">
          <rect id="Retângulo_107" data-name="Retângulo 107" width="79.997" height="15.261" transform="translate(2121.814 394.983)" fill="#ffd243" stroke="#37005b" stroke-linecap="round" stroke-linejoin="round" stroke-width="3"/>
          <path id="Caminho_172" data-name="Caminho 172" d="M2413.633,459.736H2191.057V346.628h222.576a56.554,56.554,0,0,1,56.554,56.554h0a56.554,56.554,0,0,1-56.554,56.554Z" fill="#b1e9ef" stroke="#37005b" stroke-linecap="round" stroke-linejoin="round" stroke-width="3"/>
          <rect id="Retângulo_108" data-name="Retângulo 108" width="27.758" height="50.118" rx="8.534" transform="translate(2180.221 377.554)" fill="#ffd243" stroke="#37005b" stroke-linecap="round" stroke-linejoin="round" stroke-width="3"/>
        </g>
        <g id="Grupo_48" data-name="Grupo 48">
          <rect id="Retângulo_109" data-name="Retângulo 109" width="79.997" height="15.261" transform="translate(2121.652 394.821)" fill="#ffd243" stroke="#37005b" stroke-linecap="round" stroke-linejoin="round" stroke-width="3"/>
          <path id="Caminho_173" data-name="Caminho 173" d="M2413.471,459.573H2190.894V346.466h222.577a56.553,56.553,0,0,1,56.554,56.553h0a56.554,56.554,0,0,1-56.554,56.554Z" fill="#b1e9ef" stroke="#37005b" stroke-linecap="round" stroke-linejoin="round" stroke-width="3"/>
          <rect id="Retângulo_110" data-name="Retângulo 110" width="27.758" height="50.118" rx="8.534" transform="translate(2180.059 377.392)" fill="#ffd243" stroke="#37005b" stroke-linecap="round" stroke-linejoin="round" stroke-width="3"/>
        </g>
        <g id="Grupo_49" data-name="Grupo 49">
          <rect id="Retângulo_111" data-name="Retângulo 111" width="79.997" height="15.261" transform="translate(2121.489 394.659)" fill="#ffd243" stroke="#37005b" stroke-linecap="round" stroke-linejoin="round" stroke-width="3"/>
          <path id="Caminho_174" data-name="Caminho 174" d="M2413.309,459.411H2190.732V346.3h222.577a56.553,56.553,0,0,1,56.553,56.554h0A56.554,56.554,0,0,1,2413.309,459.411Z" fill="#b1e9ef" stroke="#37005b" stroke-linecap="round" stroke-linejoin="round" stroke-width="3"/>
          <rect id="Retângulo_112" data-name="Retângulo 112" width="27.758" height="50.118" rx="8.534" transform="translate(2179.897 377.23)" fill="#ffd243" stroke="#37005b" stroke-linecap="round" stroke-linejoin="round" stroke-width="3"/>
        </g>
        <g id="Grupo_50" data-name="Grupo 50">
          <rect id="Retângulo_113" data-name="Retângulo 113" width="79.997" height="15.261" transform="translate(2121.327 394.496)" fill="#ffd243" stroke="#37005b" stroke-linecap="round" stroke-linejoin="round" stroke-width="3"/>
          <path id="Caminho_175" data-name="Caminho 175" d="M2413.146,459.244H2190.57v-113.1h222.576A56.554,56.554,0,0,1,2469.7,402.7h0A56.553,56.553,0,0,1,2413.146,459.244Z" fill="#b1e9ef" stroke="#37005b" stroke-linecap="round" stroke-linejoin="round" stroke-width="3"/>
          <rect id="Retângulo_114" data-name="Retângulo 114" width="27.758" height="50.118" rx="8.534" transform="translate(2179.734 377.067)" fill="#ffd243" stroke="#37005b" stroke-linecap="round" stroke-linejoin="round" stroke-width="3"/>
        </g>
        <g id="Grupo_51" data-name="Grupo 51">
          <rect id="Retângulo_115" data-name="Retângulo 115" width="79.997" height="15.261" transform="translate(2121.165 394.334)" fill="#ffd243" stroke="#37005b" stroke-linecap="round" stroke-linejoin="round" stroke-width="3"/>
          <path id="Caminho_176" data-name="Caminho 176" d="M2412.984,459.086H2190.407V345.979h222.577a56.553,56.553,0,0,1,56.554,56.553h0a56.554,56.554,0,0,1-56.554,56.554Z" fill="#b1e9ef" stroke="#37005b" stroke-linecap="round" stroke-linejoin="round" stroke-width="3"/>
          <rect id="Retângulo_116" data-name="Retângulo 116" width="27.758" height="50.118" rx="8.534" transform="translate(2179.572 376.905)" fill="#ffd243" stroke="#37005b" stroke-linecap="round" stroke-linejoin="round" stroke-width="3"/>
        </g>
        <g id="Grupo_52" data-name="Grupo 52">
          <rect id="Retângulo_117" data-name="Retângulo 117" width="79.997" height="15.261" transform="translate(2121.002 394.172)" fill="#ffd243" stroke="#37005b" stroke-linecap="round" stroke-linejoin="round" stroke-width="3"/>
          <path id="Caminho_177" data-name="Caminho 177" d="M2412.818,458.924H2190.245V345.816h222.573a56.553,56.553,0,0,1,56.553,56.554h0A56.554,56.554,0,0,1,2412.818,458.924Z" fill="#b1e9ef" stroke="#37005b" stroke-linecap="round" stroke-linejoin="round" stroke-width="3"/>
          <rect id="Retângulo_118" data-name="Retângulo 118" width="27.758" height="50.118" rx="8.534" transform="translate(2179.41 376.743)" fill="#ffd243" stroke="#37005b" stroke-linecap="round" stroke-linejoin="round" stroke-width="3"/>
        </g>
        <g id="Grupo_53" data-name="Grupo 53">
          <rect id="Retângulo_119" data-name="Retângulo 119" width="79.997" height="15.261" transform="translate(2120.84 394.009)" fill="#ffd243" stroke="#37005b" stroke-linecap="round" stroke-linejoin="round" stroke-width="3"/>
          <path id="Caminho_178" data-name="Caminho 178" d="M2412.659,458.761H2190.083V345.654h222.576a56.554,56.554,0,0,1,56.559,56.549v.005h0a56.554,56.554,0,0,1-56.555,56.553Z" fill="#b1e9ef" stroke="#37005b" stroke-linecap="round" stroke-linejoin="round" stroke-width="3"/>
          <rect id="Retângulo_120" data-name="Retângulo 120" width="27.758" height="50.118" rx="8.534" transform="translate(2179.247 376.58)" fill="#ffd243" stroke="#37005b" stroke-linecap="round" stroke-linejoin="round" stroke-width="3"/>
        </g>
        <g id="Grupo_54" data-name="Grupo 54">
          <rect id="Retângulo_121" data-name="Retângulo 121" width="79.997" height="15.261" transform="translate(2120.678 393.847)" fill="#ffd243" stroke="#37005b" stroke-linecap="round" stroke-linejoin="round" stroke-width="3"/>
          <path id="Caminho_179" data-name="Caminho 179" d="M2412.5,458.6H2189.918V345.492H2412.5a56.554,56.554,0,0,1,56.554,56.552h0A56.554,56.554,0,0,1,2412.5,458.6Z" fill="#b1e9ef" stroke="#37005b" stroke-linecap="round" stroke-linejoin="round" stroke-width="3"/>
          <rect id="Retângulo_122" data-name="Retângulo 122" width="27.758" height="50.118" rx="8.534" transform="translate(2179.085 376.418)" fill="#ffd243" stroke="#37005b" stroke-linecap="round" stroke-linejoin="round" stroke-width="3"/>
        </g>
        <g id="Grupo_55" data-name="Grupo 55">
          <rect id="Retângulo_123" data-name="Retângulo 123" width="79.997" height="15.261" transform="translate(2120.515 393.685)" fill="#ffd243" stroke="#37005b" stroke-linecap="round" stroke-linejoin="round" stroke-width="3"/>
          <path id="Caminho_180" data-name="Caminho 180" d="M2412.334,458.437H2189.758V345.329h222.576a56.554,56.554,0,0,1,56.554,56.554h0a56.554,56.554,0,0,1-56.554,56.554Z" fill="#b1e9ef" stroke="#37005b" stroke-linecap="round" stroke-linejoin="round" stroke-width="3"/>
          <rect id="Retângulo_124" data-name="Retângulo 124" width="27.758" height="50.118" rx="8.534" transform="translate(2178.923 376.256)" fill="#ffd243" stroke="#37005b" stroke-linecap="round" stroke-linejoin="round" stroke-width="3"/>
        </g>
        <g id="Grupo_56" data-name="Grupo 56">
          <rect id="Retângulo_125" data-name="Retângulo 125" width="79.997" height="15.261" transform="translate(2120.353 393.522)" fill="#ffd243" stroke="#37005b" stroke-linecap="round" stroke-linejoin="round" stroke-width="3"/>
          <path id="Caminho_181" data-name="Caminho 181" d="M2412.172,458.274H2189.6V345.167h222.576a56.554,56.554,0,0,1,56.554,56.554h0A56.554,56.554,0,0,1,2412.172,458.274Z" fill="#b1e9ef" stroke="#37005b" stroke-linecap="round" stroke-linejoin="round" stroke-width="3"/>
          <rect id="Retângulo_126" data-name="Retângulo 126" width="27.758" height="50.118" rx="8.534" transform="translate(2178.76 376.093)" fill="#ffd243" stroke="#37005b" stroke-linecap="round" stroke-linejoin="round" stroke-width="3"/>
        </g>
        <g id="Grupo_57" data-name="Grupo 57">
          <rect id="Retângulo_127" data-name="Retângulo 127" width="79.997" height="15.261" transform="translate(2120.191 393.36)" fill="#ffd243" stroke="#37005b" stroke-linecap="round" stroke-linejoin="round" stroke-width="3"/>
          <path id="Caminho_182" data-name="Caminho 182" d="M2412.01,458.112H2189.433V345.005H2412.01a56.551,56.551,0,0,1,56.553,56.551v0h0a56.553,56.553,0,0,1-56.552,56.554Z" fill="#b1e9ef" stroke="#37005b" stroke-linecap="round" stroke-linejoin="round" stroke-width="3"/>
          <rect id="Retângulo_128" data-name="Retângulo 128" width="27.758" height="50.118" rx="8.534" transform="translate(2178.598 375.931)" fill="#ffd243" stroke="#37005b" stroke-linecap="round" stroke-linejoin="round" stroke-width="3"/>
        </g>
        <g id="Grupo_58" data-name="Grupo 58">
          <rect id="Retângulo_129" data-name="Retângulo 129" width="79.997" height="15.261" transform="translate(2120.028 393.197)" fill="#ffd243" stroke="#37005b" stroke-linecap="round" stroke-linejoin="round" stroke-width="3"/>
          <path id="Caminho_183" data-name="Caminho 183" d="M2411.847,457.95H2189.271V344.844h222.576A56.554,56.554,0,0,1,2468.4,401.4h0A56.554,56.554,0,0,1,2411.847,457.95Z" fill="#b1e9ef" stroke="#37005b" stroke-linecap="round" stroke-linejoin="round" stroke-width="3"/>
          <rect id="Retângulo_130" data-name="Retângulo 130" width="27.758" height="50.118" rx="8.534" transform="translate(2178.435 375.768)" fill="#ffd243" stroke="#37005b" stroke-linecap="round" stroke-linejoin="round" stroke-width="3"/>
        </g>
        <g id="Grupo_59" data-name="Grupo 59">
          <rect id="Retângulo_131" data-name="Retângulo 131" width="79.997" height="15.261" transform="translate(2119.866 393.035)" fill="#ffd243" stroke="#37005b" stroke-linecap="round" stroke-linejoin="round" stroke-width="3"/>
          <path id="Caminho_184" data-name="Caminho 184" d="M2411.685,457.787H2189.108V344.68h222.577a56.553,56.553,0,0,1,56.554,56.553h0a56.554,56.554,0,0,1-56.554,56.554Z" fill="#b1e9ef" stroke="#37005b" stroke-linecap="round" stroke-linejoin="round" stroke-width="3"/>
          <rect id="Retângulo_132" data-name="Retângulo 132" width="27.758" height="50.118" rx="8.534" transform="translate(2178.273 375.606)" fill="#ffd243" stroke="#37005b" stroke-linecap="round" stroke-linejoin="round" stroke-width="3"/>
        </g>
        <g id="Grupo_60" data-name="Grupo 60">
          <rect id="Retângulo_133" data-name="Retângulo 133" width="79.997" height="15.261" transform="translate(2119.704 392.873)" fill="#ffd243" stroke="#37005b" stroke-linecap="round" stroke-linejoin="round" stroke-width="3"/>
          <path id="Caminho_185" data-name="Caminho 185" d="M2411.518,457.625H2188.946V344.517h222.572a56.553,56.553,0,0,1,56.553,56.554h0A56.554,56.554,0,0,1,2411.518,457.625Z" fill="#b1e9ef" stroke="#37005b" stroke-linecap="round" stroke-linejoin="round" stroke-width="3"/>
          <rect id="Retângulo_134" data-name="Retângulo 134" width="27.758" height="50.118" rx="8.534" transform="translate(2178.111 375.444)" fill="#ffd243" stroke="#37005b" stroke-linecap="round" stroke-linejoin="round" stroke-width="3"/>
        </g>
        <g id="Grupo_61" data-name="Grupo 61">
          <rect id="Retângulo_135" data-name="Retângulo 135" width="79.997" height="15.261" transform="translate(2119.541 392.71)" fill="#ffd243" stroke="#37005b" stroke-linecap="round" stroke-linejoin="round" stroke-width="3"/>
          <path id="Caminho_186" data-name="Caminho 186" d="M2411.36,457.463H2188.784V344.355H2411.36a56.554,56.554,0,0,1,56.558,56.55v0h0a56.554,56.554,0,0,1-56.554,56.554Z" fill="#b1e9ef" stroke="#37005b" stroke-linecap="round" stroke-linejoin="round" stroke-width="3"/>
          <rect id="Retângulo_136" data-name="Retângulo 136" width="27.758" height="50.118" rx="8.534" transform="translate(2177.948 375.281)" fill="#ffd243" stroke="#37005b" stroke-linecap="round" stroke-linejoin="round" stroke-width="3"/>
        </g>
        <g id="Grupo_62" data-name="Grupo 62">
          <rect id="Retângulo_137" data-name="Retângulo 137" width="79.997" height="15.261" transform="translate(2119.379 392.548)" fill="#ffd243" stroke="#37005b" stroke-linecap="round" stroke-linejoin="round" stroke-width="3"/>
          <path id="Caminho_187" data-name="Caminho 187" d="M2411.2,457.3h-222.58V344.193H2411.2a56.553,56.553,0,0,1,56.554,56.551h0A56.554,56.554,0,0,1,2411.2,457.3Z" fill="#b1e9ef" stroke="#37005b" stroke-linecap="round" stroke-linejoin="round" stroke-width="3"/>
          <rect id="Retângulo_138" data-name="Retângulo 138" width="27.758" height="50.118" rx="8.534" transform="translate(2177.786 375.119)" fill="#ffd243" stroke="#37005b" stroke-linecap="round" stroke-linejoin="round" stroke-width="3"/>
        </g>
        <g id="Grupo_63" data-name="Grupo 63">
          <rect id="Retângulo_139" data-name="Retângulo 139" width="79.997" height="15.261" transform="translate(2119.216 392.386)" fill="#ffd243" stroke="#37005b" stroke-linecap="round" stroke-linejoin="round" stroke-width="3"/>
          <path id="Caminho_188" data-name="Caminho 188" d="M2411.036,457.138H2188.459V344.03h222.577a56.553,56.553,0,0,1,56.553,56.554h0A56.554,56.554,0,0,1,2411.036,457.138Z" fill="#b1e9ef" stroke="#37005b" stroke-linecap="round" stroke-linejoin="round" stroke-width="3"/>
          <rect id="Retângulo_140" data-name="Retângulo 140" width="27.758" height="50.118" rx="8.534" transform="translate(2177.624 374.957)" fill="#ffd243" stroke="#37005b" stroke-linecap="round" stroke-linejoin="round" stroke-width="3"/>
        </g>
        <g id="Grupo_64" data-name="Grupo 64">
          <rect id="Retângulo_141" data-name="Retângulo 141" width="79.997" height="15.261" transform="translate(2119.054 392.223)" fill="#ffd243" stroke="#37005b" stroke-linecap="round" stroke-linejoin="round" stroke-width="3"/>
          <path id="Caminho_189" data-name="Caminho 189" d="M2410.873,456.976H2188.3V343.868h222.576a56.554,56.554,0,0,1,56.554,56.554h0a56.554,56.554,0,0,1-56.554,56.554Z" fill="#b1e9ef" stroke="#37005b" stroke-linecap="round" stroke-linejoin="round" stroke-width="3"/>
          <rect id="Retângulo_142" data-name="Retângulo 142" width="27.758" height="50.118" rx="8.534" transform="translate(2177.461 374.794)" fill="#ffd243" stroke="#37005b" stroke-linecap="round" stroke-linejoin="round" stroke-width="3"/>
        </g>
        <g id="Grupo_65" data-name="Grupo 65">
          <rect id="Retângulo_143" data-name="Retângulo 143" width="79.997" height="15.261" transform="translate(2118.892 392.061)" fill="#ffd243" stroke="#37005b" stroke-linecap="round" stroke-linejoin="round" stroke-width="3"/>
          <path id="Caminho_190" data-name="Caminho 190" d="M2410.711,456.813H2188.134V343.706h222.577a56.553,56.553,0,0,1,56.554,56.553h0a56.554,56.554,0,0,1-56.554,56.554Z" fill="#b1e9ef" stroke="#37005b" stroke-linecap="round" stroke-linejoin="round" stroke-width="3"/>
          <rect id="Retângulo_144" data-name="Retângulo 144" width="27.758" height="50.118" rx="8.534" transform="translate(2177.299 374.632)" fill="#ffd243" stroke="#37005b" stroke-linecap="round" stroke-linejoin="round" stroke-width="3"/>
        </g>
        <g id="Grupo_66" data-name="Grupo 66">
          <rect id="Retângulo_145" data-name="Retângulo 145" width="79.997" height="15.261" transform="translate(2118.729 391.899)" fill="#ffd243" stroke="#37005b" stroke-linecap="round" stroke-linejoin="round" stroke-width="3"/>
          <path id="Caminho_191" data-name="Caminho 191" d="M2410.549,456.651H2187.972V343.544h222.577A56.553,56.553,0,0,1,2467.1,400.1h0A56.554,56.554,0,0,1,2410.549,456.651Z" fill="#b1e9ef" stroke="#37005b" stroke-linecap="round" stroke-linejoin="round" stroke-width="3"/>
          <rect id="Retângulo_146" data-name="Retângulo 146" width="27.758" height="50.118" rx="8.534" transform="translate(2177.137 374.47)" fill="#ffd243" stroke="#37005b" stroke-linecap="round" stroke-linejoin="round" stroke-width="3"/>
        </g>
        <g id="Grupo_67" data-name="Grupo 67">
          <rect id="Retângulo_147" data-name="Retângulo 147" width="79.997" height="15.261" transform="translate(2118.567 391.736)" fill="#ffd243" stroke="#37005b" stroke-linecap="round" stroke-linejoin="round" stroke-width="3"/>
          <path id="Caminho_192" data-name="Caminho 192" d="M2410.386,456.488H2187.81V343.381h222.576a56.554,56.554,0,0,1,56.554,56.554h0A56.554,56.554,0,0,1,2410.386,456.488Z" fill="#b1e9ef" stroke="#37005b" stroke-linecap="round" stroke-linejoin="round" stroke-width="3"/>
          <rect id="Retângulo_148" data-name="Retângulo 148" width="27.758" height="50.118" rx="8.534" transform="translate(2176.974 374.307)" fill="#ffd243" stroke="#37005b" stroke-linecap="round" stroke-linejoin="round" stroke-width="3"/>
        </g>
        <g id="Grupo_68" data-name="Grupo 68">
          <rect id="Retângulo_149" data-name="Retângulo 149" width="79.997" height="15.261" transform="translate(2118.405 391.574)" fill="#ffd243" stroke="#37005b" stroke-linecap="round" stroke-linejoin="round" stroke-width="3"/>
          <path id="Caminho_193" data-name="Caminho 193" d="M2410.224,456.326H2187.647V343.219h222.577a56.553,56.553,0,0,1,56.554,56.553h0a56.554,56.554,0,0,1-56.554,56.554Z" fill="#b1e9ef" stroke="#37005b" stroke-linecap="round" stroke-linejoin="round" stroke-width="3"/>
          <rect id="Retângulo_150" data-name="Retângulo 150" width="27.758" height="50.118" rx="8.534" transform="translate(2176.812 374.145)" fill="#ffd243" stroke="#37005b" stroke-linecap="round" stroke-linejoin="round" stroke-width="3"/>
        </g>
        <g id="Grupo_69" data-name="Grupo 69">
          <rect id="Retângulo_151" data-name="Retângulo 151" width="79.997" height="15.261" transform="translate(2118.242 391.411)" fill="#ffd243" stroke="#37005b" stroke-linecap="round" stroke-linejoin="round" stroke-width="3"/>
          <path id="Caminho_194" data-name="Caminho 194" d="M2410.062,456.164H2187.485V343.056h222.577a56.554,56.554,0,0,1,56.556,56.552v0h0a56.554,56.554,0,0,1-56.554,56.554Z" fill="#b1e9ef" stroke="#37005b" stroke-linecap="round" stroke-linejoin="round" stroke-width="3"/>
          <rect id="Retângulo_152" data-name="Retângulo 152" width="27.758" height="50.118" rx="8.534" transform="translate(2176.65 373.983)" fill="#ffd243" stroke="#37005b" stroke-linecap="round" stroke-linejoin="round" stroke-width="3"/>
        </g>
        <g id="Grupo_70" data-name="Grupo 70">
          <rect id="Retângulo_153" data-name="Retângulo 153" width="79.997" height="15.261" transform="translate(2118.08 391.249)" fill="#ffd243" stroke="#37005b" stroke-linecap="round" stroke-linejoin="round" stroke-width="3"/>
          <path id="Caminho_195" data-name="Caminho 195" d="M2409.9,456H2187.323V342.894H2409.9a56.553,56.553,0,0,1,56.554,56.55h0A56.554,56.554,0,0,1,2409.9,456Z" fill="#b1e9ef" stroke="#37005b" stroke-linecap="round" stroke-linejoin="round" stroke-width="3"/>
          <rect id="Retângulo_154" data-name="Retângulo 154" width="27.758" height="50.118" rx="8.534" transform="translate(2176.487 373.82)" fill="#ffd243" stroke="#37005b" stroke-linecap="round" stroke-linejoin="round" stroke-width="3"/>
        </g>
        <g id="Grupo_71" data-name="Grupo 71">
          <rect id="Retângulo_155" data-name="Retângulo 155" width="79.997" height="15.261" transform="translate(2117.918 391.087)" fill="#ffd243" stroke="#37005b" stroke-linecap="round" stroke-linejoin="round" stroke-width="3"/>
          <path id="Caminho_196" data-name="Caminho 196" d="M2409.737,455.839H2187.16V342.732h222.577a56.551,56.551,0,0,1,56.553,56.551v0h0a56.553,56.553,0,0,1-56.552,56.554Z" fill="#b1e9ef" stroke="#37005b" stroke-linecap="round" stroke-linejoin="round" stroke-width="3"/>
          <rect id="Retângulo_156" data-name="Retângulo 156" width="27.758" height="50.118" rx="8.534" transform="translate(2176.325 373.658)" fill="#ffd243" stroke="#37005b" stroke-linecap="round" stroke-linejoin="round" stroke-width="3"/>
        </g>
        <g id="Grupo_72" data-name="Grupo 72">
          <rect id="Retângulo_157" data-name="Retângulo 157" width="79.997" height="15.261" transform="translate(2117.755 390.924)" fill="#ffd243" stroke="#37005b" stroke-linecap="round" stroke-linejoin="round" stroke-width="3"/>
          <path id="Retângulo_158" data-name="Retângulo 158" d="M2187,342.569h222.577a56.553,56.553,0,0,1,56.553,56.554h0a56.554,56.554,0,0,1-56.554,56.554H2187V342.569Z" fill="#ff801e" stroke="#37005b" stroke-linecap="round" stroke-linejoin="round" stroke-width="3"/>
          <rect id="Retângulo_159" data-name="Retângulo 159" width="27.758" height="50.118" rx="8.534" transform="translate(2176.162 373.496)" fill="#ffd243" stroke="#37005b" stroke-linecap="round" stroke-linejoin="round" stroke-width="3"/>
        </g>
      </g>
      <circle id="Elipse_14" data-name="Elipse 14" cx="3.707" cy="3.707" r="3.707" transform="translate(2443.285 394.848)" fill="#37005b"/>
      <circle id="Elipse_15" data-name="Elipse 15" cx="2.474" cy="2.474" r="2.474" transform="translate(2193.708 378.897)" fill="#37005b"/>
      <circle id="Elipse_16" data-name="Elipse 16" cx="2.474" cy="2.474" r="2.474" transform="translate(2193.708 414.465)" fill="#37005b"/>
      <circle id="Elipse_17" data-name="Elipse 17" cx="2.474" cy="2.474" r="2.474" transform="translate(2193.708 396.081)" fill="#37005b"/>
      <circle id="Elipse_18" data-name="Elipse 18" cx="3.707" cy="3.707" r="3.707" transform="translate(2415.612 427.81)" fill="#37005b"/>
      <circle id="Elipse_19" data-name="Elipse 19" cx="3.707" cy="3.707" r="3.707" transform="translate(2415.612 361.887)" fill="#37005b"/>
    </g>
  </g>
  <text id="Sobre" transform="translate(72 100.5)" fill="#fff" stroke="#37005b" stroke-width="3" font-size="63" font-family="OpenSans-Bold, Open Sans" font-weight="700"><tspan x="0" y="0">Sobre</tspan></text>
</svg>
